<svg viewBox="0 0 24 24" fill="none" xmlns="http://www.w3.org/2000/svg"><path d="M17 3a3 3 0 0 1 3 3v3c1.214.912 2 2.364 2 4v7a1 1 0 0 1-1 1h-2v-2H5v2H3a1 1 0 0 1-1-1v-7c0-1.636.786-3.088 2-4V6a3 3 0 0 1 3-3h3c.768 0 1.47.29 2 .764A2.989 2.989 0 0 1 14 3h3ZM6 6v2h5V6c0-.551-.449-1-1-1H7c-.551 0-1 .449-1 1Zm14 7a2.98 2.98 0 0 0-.879-2.121A2.98 2.98 0 0 0 17 10H7a2.98 2.98 0 0 0-2.121.879A2.98 2.98 0 0 0 4 13v1h16v-1Zm0 4v-1H4v1h16ZM13 6v2h5V6c0-.551-.449-1-1-1h-3c-.551 0-1 .449-1 1Z" fill="currentColor"></path></svg>