<svg viewBox="0 0 24 24" fill="none" xmlns="http://www.w3.org/2000/svg"><path d="M16.5 15a1.5 1.5 0 1 1 0-3 1.5 1.5 0 0 1 0 3ZM9 13.5a1.5 1.5 0 1 1-3 0 1.5 1.5 0 0 1 3 0Z" fill="currentColor"></path><path d="M15.843 2H8.157a3 3 0 0 0-2.935 2.38L4.445 8.05A3.001 3.001 0 0 0 2 11v9a2 2 0 0 0 2 2h1a1 1 0 0 0 1-1v-2h12v2a1 1 0 0 0 1 1h1a2 2 0 0 0 2-2v-9a3 3 0 0 0-2.445-2.949l-.777-3.672A3 3 0 0 0 15.843 2ZM19 10a1 1 0 0 1 1 1v6H4v-6a1 1 0 0 1 1-1h14Zm-1.5-2h-11l.678-3.207a1 1 0 0 1 .862-.786L8.157 4h7.686a1 1 0 0 1 .948.68l.03.113L17.5 8Z" fill="currentColor"></path></svg>